<svg width="112" height="34" viewBox="0 0 112 34" fill="none" xmlns="http://www.w3.org/2000/svg">
<path fill-rule="evenodd" clip-rule="evenodd" d="M16.837 20.9136C25.1508 26.1864 35.4312 29.3618 46.0497 29.3618C53.2127 29.3618 61.0868 27.7415 68.3318 24.3925C69.4244 23.8869 70.3406 25.1773 69.271 26.0374C62.8085 31.2353 53.4388 34 45.371 34C34.0632 34 23.8813 29.4448 16.1751 21.8614C15.5702 21.266 16.1099 20.4523 16.837 20.9136ZM75.1823 21.5522C75.9098 22.3889 74.9923 28.1816 71.4414 30.9459C70.8951 31.3714 70.376 31.1447 70.618 30.5827L71.0366 29.5993C71.8982 27.5385 73.0771 24.4157 72.3584 23.5595C71.5114 22.5505 66.7619 23.0812 64.6287 23.3187C63.9824 23.3909 63.882 22.8661 64.4647 22.485C68.2532 20.0083 74.4608 20.7237 75.1823 21.5522ZM37.5961 0.944444C39.0096 0.944444 40.5487 1.52773 41.4911 2.84061C42.5058 4.2261 42.3584 6.20437 42.3411 7.99327L42.337 19.2094C42.337 19.5557 42.0461 19.8333 41.6881 19.8333H38.3267C37.9889 19.8115 37.7225 19.543 37.7225 19.211L37.7217 10.0243C37.7217 9.29508 37.7847 7.47168 37.6274 6.77886C37.3763 5.6119 36.6224 5.28368 35.6487 5.28368C34.8322 5.28368 33.9836 5.83058 33.6382 6.70609C33.3791 7.36243 33.3322 8.34688 33.3249 9.21348L33.3244 19.2094C33.3244 19.5557 33.0336 19.8333 32.6751 19.8333H29.3142C28.9764 19.8115 28.7099 19.543 28.7099 19.211L28.7065 10.0243C28.7065 8.09174 29.0206 5.2473 26.6334 5.2473C24.4106 5.2473 24.31 7.58741 24.3083 9.5232L24.3077 19.2094C24.308 19.5557 24.0172 19.8333 23.6584 19.8333H20.2936C19.9733 19.8123 19.7172 19.5706 19.6916 19.2627L19.6939 1.9337C19.6939 1.5871 19.9844 1.30981 20.3432 1.30981L23.477 1.30905C23.8049 1.3259 24.0683 1.57484 24.0889 1.8908V4.15349H24.1519C24.9688 1.96549 26.5078 0.944444 28.5809 0.944444C30.6857 0.944444 32.0048 1.96549 32.9473 4.15349C33.7638 1.96549 35.617 0.944444 37.5961 0.944444ZM87.6297 0C92.5736 0 95.2472 4.43235 95.2472 10.0668C95.2472 15.513 92.294 19.8333 87.6297 19.8333C82.779 19.8333 80.1361 15.4006 80.1361 9.87899C80.1361 4.31952 82.81 0 87.6297 0ZM106.376 0.944444C107.921 0.944444 109.435 1.49135 110.401 2.98653C111.253 4.29519 111.3 6.44969 111.303 8.09787L111.303 19.2872C111.264 19.5947 110.982 19.8333 110.642 19.8333H107.184C106.864 19.813 106.607 19.5836 106.569 19.2872L106.572 9.40182C106.589 7.55102 106.602 5.21091 104.412 5.21091C103.575 5.21091 102.802 5.75782 102.416 6.59656C101.977 7.55785 101.884 8.51915 101.87 9.56274L101.869 19.2094C101.862 19.5557 101.564 19.8333 101.197 19.8333H97.7605C97.415 19.8115 97.1415 19.543 97.1415 19.211L97.1361 1.87548C97.165 1.55875 97.451 1.30981 97.7985 1.30981L100.998 1.30905C101.299 1.32398 101.547 1.52543 101.611 1.79429V4.44494H101.676C102.642 2.07464 103.993 0.944444 106.376 0.944444ZM76.2675 0.944444C76.6443 0.944444 76.9471 1.21384 76.9479 1.59619L76.9471 3.80924C76.9442 4.18042 76.6256 4.66493 76.0592 5.43362L69.9512 13.9869C72.2186 13.935 74.617 14.2675 76.6773 15.4033C77.1416 15.6592 77.2661 16.0391 77.3027 16.4107V19.1637C77.3027 19.5433 76.8795 19.9823 76.4348 19.754C72.805 17.8894 67.9886 17.6854 63.9756 19.7764C63.5654 19.9907 63.1361 19.5581 63.1361 19.1785V16.5612C63.1361 16.1425 63.1442 15.4261 63.5747 14.7875L70.6516 4.83056L64.4899 4.82937C64.1135 4.82937 63.8112 4.56595 63.8087 4.17962V1.59938C63.8103 1.20666 64.1123 0.944844 64.4757 0.945642L76.2675 0.944444ZM53.9406 0.063C55.6067 0.063 57.7856 0.508278 59.0993 1.77022C60.7657 3.32889 60.6052 5.40672 60.6052 7.67044V13.0118C60.6052 14.6183 61.2723 15.3234 61.8983 16.1891C62.117 16.5009 62.1664 16.8719 61.887 17.0998L61.1403 17.7353C60.4918 18.2928 59.7391 18.9505 59.2601 19.3768L59.2523 19.3694C59.0254 19.5728 58.6987 19.5864 58.443 19.4491C57.3054 18.5026 57.1014 18.0651 56.4797 17.1644C54.5992 19.0816 53.2673 19.6564 50.8323 19.6564C47.9486 19.6564 45.7052 17.8753 45.7052 14.3131C45.7052 11.5298 47.2112 9.63744 49.3582 8.70956C51.2166 7.89289 53.8124 7.74472 55.799 7.52189L55.8015 6.44293C55.797 5.79415 55.743 5.11924 55.3825 4.59044C54.9656 3.95967 54.1648 3.69989 53.4596 3.69989C52.2128 3.69989 51.0979 4.31041 50.7508 5.57375L50.7065 5.75867C50.6474 6.06744 50.4221 6.37311 50.1116 6.38867L46.7916 6.02933C46.5114 5.96594 46.1998 5.74078 46.2806 5.31261C47.0437 1.281 50.6808 0.063 53.9406 0.063ZM9.03739 0.063C10.7038 0.063 12.8827 0.508278 14.1968 1.77022C15.7987 3.26894 15.7124 5.24766 15.7033 7.41009L15.7028 13.0118C15.7028 14.6183 16.3691 15.3234 16.9954 16.1891C17.2138 16.5009 17.2631 16.8719 16.9841 17.0998L15.9543 17.9794C15.3795 18.476 14.7677 19.0114 14.3576 19.3768L14.3495 19.3694C14.1226 19.5728 13.7954 19.5864 13.5402 19.4491C12.4021 18.5026 12.1985 18.0651 11.5765 17.1644C9.69674 19.0816 8.36484 19.6564 5.92948 19.6564C3.04537 19.6564 0.802734 17.8753 0.802734 14.3131C0.802734 11.5298 2.3087 9.63744 4.45537 8.70956C6.31414 7.89289 8.90956 7.74472 10.8962 7.52189L10.8987 6.44293C10.8942 5.79415 10.8401 5.11924 10.4796 4.59044C10.0631 3.95967 9.26158 3.69989 8.55716 3.69989C7.31027 3.69989 6.19473 4.31041 5.84819 5.57375L5.80399 5.75867C5.74454 6.06744 5.51958 6.37311 5.20875 6.38867L1.88908 6.02933C1.60856 5.96594 1.29657 5.74078 1.37777 5.31261C2.14047 1.281 5.77795 0.063 9.03739 0.063ZM55.799 11.5335L55.799 10.2682L55.4171 10.2727C53.0594 10.329 50.7041 10.9492 50.7041 13.7192C50.7041 15.2032 51.473 16.2054 52.7867 16.2054C53.7483 16.2054 54.6132 15.6119 55.1579 14.6471C55.7412 13.6178 55.795 12.6446 55.799 11.5335ZM10.8961 11.5335L10.8962 10.2682L10.5142 10.2727C8.15691 10.329 5.80127 10.9492 5.80127 13.7192C5.80127 15.2032 6.57057 16.2054 7.88421 16.2054C8.84546 16.2054 9.71073 15.6119 10.2551 14.6471C10.8386 13.6178 10.8922 12.6446 10.8961 11.5335ZM87.6606 3.64372C85.2654 3.64372 85.0579 6.96427 85.049 9.14946L85.0533 10.3021C85.0874 12.6535 85.366 16.1521 87.6297 16.1521C90.2106 16.1521 90.3346 12.3956 90.3346 10.1043C90.3346 8.60195 90.2726 6.79903 89.8373 5.37129C89.4637 4.13173 88.7174 3.64372 87.6606 3.64372Z" fill="#B1B1B1"/>
</svg>
