<svg width="158" height="20" viewBox="0 0 158 20" fill="none" xmlns="http://www.w3.org/2000/svg">
<path fill-rule="evenodd" clip-rule="evenodd" d="M9.25422 0.0555574C9.5141 -0.073492 9.82597 0.0297475 9.95591 0.287846L18.948 18.1741C18.974 18.2515 19 18.3548 19 18.4322C19 18.7109 18.7895 18.9479 18.52 18.9925L18.4282 19H11.9051C11.7269 19 11.5677 18.9052 11.4605 18.7643L11.4113 18.6903L8.26664 12.4443C6.3969 8.65526 6.61518 4.20754 8.80206 0.619097L8.99433 0.313656C9.04631 0.210417 9.12427 0.132987 9.25422 0.0555574ZM92.7936 3.00825L93.0766 3.00511C94.7125 2.95453 96.3263 3.27969 97.8364 3.95878L98.183 4.12176V7.93472C96.5234 7.11766 94.7617 6.54571 92.9745 6.54571C91.4936 6.54571 90.7021 6.95425 90.7021 7.90748C90.7021 8.6156 91.223 9.14694 93.2451 9.6474L93.4851 9.70502C97.4432 10.6079 98.9013 11.925 98.9718 14.6661L98.974 14.864L87.0766 7.90748L87.077 7.952L87 7.90748C87 4.92975 88.9708 3.09398 92.7936 3.00825ZM87.077 7.952L87.0785 8.08396C87.1295 10.4251 88.2243 12.2864 92.2596 13.1367L92.5088 13.1927C94.7708 13.712 95.2468 14.1472 95.2468 14.9887C95.2468 15.833 94.7362 16.4049 93 16.4049C90.9064 16.3777 88.8383 15.7785 87 14.6619V18.611L87.152 18.6898C88.3841 19.3223 90.0077 20 92.9489 20L93.2392 19.9968C97.3419 19.9054 99 17.8608 99 14.8797L98.974 14.864L98.9745 14.8797L87.077 7.952ZM108.339 3.00811L108.638 3.00511C110.402 2.95453 112.143 3.27969 113.772 3.95878L114.146 4.12176V7.93472C112.356 7.11766 110.456 6.54571 108.528 6.54571C106.93 6.54571 106.076 6.95425 106.076 7.90748C106.076 8.61658 106.64 9.1484 108.828 9.64947L109.078 9.70502C113.458 10.631 115 11.9928 115 14.8797C115 17.9301 113.155 19.9728 108.417 20C105.239 20 103.487 19.3201 102.158 18.6867L102 18.611V14.6619C103.983 15.7785 106.214 16.3777 108.472 16.4049C110.345 16.4049 110.896 15.833 110.896 14.9887C110.896 14.1462 110.381 13.7109 107.934 13.1908L107.674 13.1367C103.212 12.2651 102.083 10.3314 102.083 7.90748C102.083 4.92806 104.211 3.0919 108.339 3.00811ZM5.47307 9.2031C5.29662 8.98044 4.96893 8.93096 4.74207 9.10414C4.66646 9.15362 4.61604 9.22784 4.59084 9.30205L0.0536476 18.2331L0.0199697 18.3253C-0.0478011 18.5742 0.0592491 18.8406 0.305714 18.9505C0.381333 18.9753 0.456953 19 0.55778 19H6.88464L6.97069 18.9939C7.14133 18.9697 7.29874 18.8728 7.36356 18.7031C8.69951 15.9323 7.86769 11.7265 5.47307 9.2031ZM153.28 10.3256L149.383 3H144V19H147.42V6.80826L148.852 10.0347L153.705 19H158V3H154.58V13.3405L153.28 10.3256ZM122 3V19H118V3H122ZM61.8149 15.5355V3H58V19H65.791L67 15.5355H61.8149ZM55 3V6.46446H50.6996V19H47.0429V6.46446H43V3H55ZM43 19L37.4474 3H32.5526L27 19H31.2368L32.0263 16.3025L32.3926 16.4048C34.2299 16.882 36.148 16.8479 37.9737 16.3025L38.7632 19H43ZM78.4474 3L84 19H79.7632L78.9737 16.3025C77.148 16.8479 75.2299 16.882 73.3926 16.4048L73.0263 16.3025L72.2368 19H68L73.5526 3H78.4474ZM141 19L135.447 3H130.553L125 19H129.237L130.026 16.3025L130.393 16.4048C132.23 16.882 134.148 16.8479 135.974 16.3025L136.763 19H141ZM32.9474 13.1289L35 6.14711L37.0526 13.1289L36.7105 13.2239C36.1404 13.3647 35.5702 13.4198 35 13.4198C34.3158 13.4198 33.6316 13.314 32.9474 13.1289ZM76 6.14711L73.9474 13.1289C74.6316 13.314 75.3158 13.4198 76 13.4198C76.5702 13.4198 77.1404 13.3647 77.7105 13.2239L78.0526 13.1289L76 6.14711ZM130.947 13.1289L133 6.14711L135.053 13.1289L134.711 13.2239C134.14 13.3647 133.57 13.4198 133 13.4198C132.316 13.4198 131.632 13.314 130.947 13.1289Z" fill="#B1B1B1"/>
</svg>
