<svg width="60" height="60" viewBox="0 0 60 60" fill="none" xmlns="http://www.w3.org/2000/svg">
<circle cx="30" cy="30" r="30" fill="#0874FF"/>
<path d="M29.7468 24.4H23.3335" stroke="#0874FF" stroke-width="1.5" stroke-linecap="round" stroke-linejoin="round"/>
<path fill-rule="evenodd" clip-rule="evenodd" d="M39.3333 42H20.6667C19.1933 42 18 40.8067 18 39.3333V20.6667C18 19.1933 19.1933 18 20.6667 18H39.3333C40.8067 18 42 19.1933 42 20.6667V39.3333C42 40.8067 40.8067 42 39.3333 42Z" fill="white" stroke="white" stroke-width="1.5" stroke-linecap="round" stroke-linejoin="round"/>
<path d="M26.5465 23.3333V24.4" stroke="#0874FF" stroke-width="1.3" stroke-linecap="round" stroke-linejoin="round"/>
<path d="M28.1455 24.4027C28.1455 27.16 25.9908 29.3933 23.3335 29.3933" stroke="#0874FF" stroke-width="1.3" stroke-linecap="round" stroke-linejoin="round"/>
<path d="M29.7508 29.3933C28.5975 29.3933 27.5655 28.7787 26.8335 27.8093" stroke="#0874FF" stroke-width="1.3" stroke-linecap="round" stroke-linejoin="round"/>
<path d="M33.6358 30.6067L30.6064 36.6667" stroke="#0874FF" stroke-width="1.3" stroke-linecap="round" stroke-linejoin="round"/>
<path d="M36.6669 36.6667L33.6362 30.6067" stroke="#0874FF" stroke-width="1.3" stroke-linecap="round" stroke-linejoin="round"/>
<path d="M31.1411 35.5973H36.1318" stroke="#0874FF" stroke-width="1.3" stroke-linecap="round" stroke-linejoin="round"/>
</svg>
