<svg width="151" height="36" viewBox="0 0 151 36" fill="none" xmlns="http://www.w3.org/2000/svg">
<path fill-rule="evenodd" clip-rule="evenodd" d="M135.498 24C136.351 24 137.059 24.4342 137.154 24.9946L138 34.3207C138 35.2418 136.892 36 135.498 36C134.108 36 133 35.2418 133 34.3207L133.845 24.9946C133.932 24.4693 134.559 24.0548 135.343 24.005L135.498 24ZM83.0442 13C88.1209 13 89.6917 16.1214 89.7492 19.7212L89.7509 19.9294V25.7135C89.7509 27.2137 89.8129 28.463 90 29.6337C86.8176 30.5817 85.9381 28.4982 85.7767 28.0008L85.7466 27.8974H85.6471C84.6607 29.1913 83.0145 30 81.0434 30C77.8427 30 76 27.6238 76 25.0884C76 21.0157 79.4805 18.978 85.0176 18.9116L85.3393 18.91V18.6774C85.3393 17.6939 84.9099 16.1587 82.284 16.1648C80.7972 16.1648 79.2305 16.6612 78.1738 17.2859L77.9694 17.4124L77.1276 14.4495C78.2781 13.7667 80.3886 13 83.0442 13ZM33.0429 13C38.1193 13 39.6892 16.1214 39.7467 19.7212L39.7483 19.9294V25.7135C39.7483 27.2137 39.8095 28.463 40 29.6337C36.8993 30.5567 35.9819 28.6057 35.7862 28.0433L35.7418 27.8974H35.6457C34.6585 29.1913 33.0106 30 31.0414 30C27.8409 30 26 27.6238 26 25.0884C26 21.0157 29.4795 18.978 35.017 18.9116L35.3387 18.91V18.6774C35.3387 17.6939 34.9093 16.1587 32.2828 16.1648C30.7945 16.1648 29.2293 16.6612 28.1728 17.2859L27.9684 17.4124L27.1249 14.4495C28.2771 13.7667 30.3849 13 33.0429 13ZM47 9V30H43V9H47ZM108.249 9V13.8834H112V17.8354H108.249V23.6617C108.249 25.5485 108.741 26.4623 110.208 26.4623C110.813 26.4623 111.277 26.3979 111.677 26.3114L111.845 26.2731L111.901 29.5506C111.312 29.7649 110.058 30 108.781 30C107.283 30 106.033 29.4906 105.276 28.706C104.454 27.8563 104.046 26.495 104.004 24.5799L104 24.2362V9H108.249ZM101.058 14C101.393 14 101.601 14.0204 101.847 14.0662L102 14.0967V18.193L101.621 18.1394C101.366 18.1068 101.097 18.0828 100.766 18.0828C98.9548 18.0828 97.6953 19.1542 97.3765 20.8328C97.3237 21.1086 97.2957 21.4054 97.2866 21.7344L97.2832 21.9874V30H93V14.3532H96.7579V17.3041H96.8752C97.6383 15.0495 99.457 14 101.058 14ZM68.6021 14C71.4027 14 73.8919 15.8423 73.9966 20.4785L74 20.7848V30H69.6323V21.4265C69.6323 18.9633 68.775 17.5371 66.9869 17.5371C65.6751 17.5371 64.7236 18.3923 64.3658 19.4435C64.2655 19.7355 64.2084 20.1098 64.1896 20.458L64.1826 20.7125V30H59.8183V21.0825C59.8183 18.9869 58.993 17.5371 57.23 17.5371C55.8213 17.5371 54.9381 18.6194 54.5751 19.5436C54.4455 19.8715 54.3891 20.2433 54.3739 20.6068L54.3695 20.8235V30H50V14.3532H54.1473V16.4791H54.2122C54.9554 15.3405 56.1765 14 58.8953 14C60.9312 14 62.5108 15.0279 63.244 16.6059L63.3279 16.7979H63.3918C63.9873 15.9485 64.6674 15.3043 65.4288 14.8494C66.3327 14.3086 67.3335 14 68.6021 14ZM0 9H4.69411L6.38034 17.5871C6.77089 19.5566 7.14054 21.5979 7.45406 23.4135L7.74756 25.1429H7.81086C8.13578 23.025 8.6302 21.0072 9.16864 18.5957L9.31649 17.9279L11.4146 9H16.0614L18.0236 18.1595L18.4599 20.3215C18.7322 21.6933 18.968 22.9616 19.1723 24.3407L19.2718 25.0405H19.3343C19.6548 22.8863 20.0574 21.0142 20.5051 18.755L20.6559 17.9866L22.5414 9H27L21.4771 29.7864C18.0497 30.5338 16.683 29.2144 16.1663 27.0797L14.701 20.4179L14.3288 18.6354C14.0579 17.3231 13.8305 16.1305 13.6491 14.6866L13.5743 14.0514H13.5076C13.2058 15.9468 12.8937 17.3877 12.4798 19.0815L12.1488 20.4104L9.83215 29.7864C6.33005 30.4778 5.05831 29.4939 4.35627 26.7886L0 9ZM141.938 19.0559L150.329 23.2961C151.119 23.7918 151.232 25.201 150.56 26.4632C149.89 27.7227 148.708 28.3206 147.92 27.8276L140.343 22.0563C139.939 21.694 139.887 20.9092 140.214 20.1765L140.287 20.024C140.702 19.2477 141.412 18.8443 141.938 19.0559ZM129.712 20.0243C130.121 20.7963 130.089 21.6686 129.654 22.0578L122.078 27.8272C121.291 28.3203 120.11 27.725 119.438 26.4653C118.767 25.2029 118.884 23.7917 119.671 23.2959L128.058 19.0569C128.586 18.8427 129.3 19.2479 129.712 20.0243ZM85.4787 21.7924C82.7543 21.7776 80.3597 22.3948 80.3597 24.6294C80.3597 26.0903 81.3036 26.7827 82.4855 26.7827C83.9048 26.7827 85.0417 25.8289 85.3725 24.7029C85.4311 24.5009 85.4616 24.2753 85.4731 24.0487L85.4787 23.8225V21.7924ZM35.4765 21.7924C32.753 21.7776 30.3603 22.3948 30.3603 24.6294C30.3603 26.0903 31.3007 26.7827 32.4852 26.7827C33.9043 26.7827 35.0394 25.8289 35.3702 24.7029C35.4314 24.5009 35.4606 24.2753 35.4713 24.0487L35.4765 23.8225V21.7924ZM119.438 8.53812C120.079 7.33239 121.184 6.7352 121.968 7.11225L122.078 7.17278L129.654 12.9444C130.089 13.3307 130.121 14.2048 129.709 14.9803C129.327 15.6982 128.68 16.1006 128.166 15.9783L128.058 15.944L119.671 11.7027C118.884 11.2079 118.767 9.79858 119.438 8.53812ZM147.92 7.17266C148.708 6.67959 149.89 7.27576 150.56 8.53803C151.201 9.74121 151.127 11.08 150.432 11.6296L150.329 11.7027L141.938 15.944C141.412 16.1565 140.702 15.7495 140.287 14.9767C139.908 14.2562 139.908 13.4468 140.262 13.0279L140.343 12.9443L147.92 7.17266ZM135.498 0C136.832 0 137.903 0.692314 137.994 1.55872L138 1.6779L137.154 11.0053C137.065 11.5307 136.437 11.9452 135.655 11.995L135.498 12L135.343 11.995C134.611 11.9485 134.016 11.5843 133.87 11.1088L133.845 11.0053L133 1.6779C133 0.756682 134.108 0 135.498 0Z" fill="#B1B1B1"/>
</svg>
